{"title":"Blood Lad","uid":10542246,"size":681456454,"categoryP":"video","categoryS":"tv_shows","magnet":"?xt=urn:btih:b9342ee4cf40ad7fcf4917258381a21a0f481688&amp;dn=Blood+Lad&amp;tr=udp%3A%2F%2Ftracker.openbittorrent.com%3A80&amp;tr=udp%3A%2F%2Fopen.demonii.com%3A1337&amp;tr=udp%3A%2F%2Ftracker.coppersurfer.tk%3A6969&amp;tr=udp%3A%2F%2Fexodus.desync.com%3A6969","seeders":1,"leechers":1,"uploader":"p7trick","files":-1,"time":1405242644,"description":"watchcartoononline\n\nBlood Lad ep 1-10 ENGLISH DUBBED\n_________________________________________________________\n\nFormat                                   : MPEG-4\nFormat profile                           : Base Media\nCodec ID                                 : isom\nFile size                                : 65.2 MiB\nDuration                                 : 24mn 50s\nOverall bit rate mode                    : Variable\nOverall bit rate                         : 367 Kbps\nEncoded date                             : UTC 2014-07-03 02:15:31\nTagged date                              : UTC 2014-07-03 02:15:31\n\nVideo\nID                                       : 1\nFormat                                   : AVC\nFormat/Info                              : Advanced Video Codec\nFormat profile                           : &lt;a class=&quot;__cf_email__&quot; href=&quot;/cdn-cgi/l/email-protection&quot; data-cfemail=&quot;a8e0c1cfc0e8e49b8698&quot;&gt;[email&amp;#160;protected]&lt;/a&gt;&lt;script cf-hash='f9e31' type=&quot;text/javascript&quot;&gt;\n/* &lt;![CDATA[ */!function(){try{var t=&quot;currentScript&quot;in document?document.currentScript:function(){for(var t=document.getElementsByTagName(&quot;script&quot;),e=t.length;e--;)if(t[e].getAttribute(&quot;cf-hash&quot;))return t[e]}();if(t&amp;&amp;t.previousSibling){var e,r,n,i,c=t.previousSibling,a=c.getAttribute(&quot;data-cfemail&quot;);if(a){for(e=&quot;&quot;,r=parseInt(a.substr(0,2),16),n=2;a.length-n;n+=2)i=parseInt(a.substr(n,2),16)^r,e+=String.fromCharCode(i);e=document.createTextNode(e),c.parentNode.replaceChild(e,c)}}}catch(u){}}();/* ]]&gt; */&lt;/script&gt;\nFormat settings, CABAC                   : Yes\nFormat settings, ReFrames                : 6 frames\nCodec ID                                 : avc1\nCodec ID/Info                            : Advanced Video Coding\nDuration                                 : 24mn 50s\nBit rate mode                            : Variable\nBit rate                                 : 300 Kbps\nMaximum bit rate                         : 2 751 Kbps\nWidth                                    : 704 pixels\nHeight                                   : 392 pixels\nDisplay aspect ratio                     : 16:9\nFrame rate mode                          : Constant\nFrame rate                               : 23.976 fps\nColor space                              : YUV\nChroma subsampling                       : 4:2:0\nBit depth                                : 8 bits\nScan type                                : Progressive\nBits/(Pixel*Frame)                       : 0.045\nStream size                              : 53.3 MiB (82%)\n\nAudio\nID                                       : 2\nFormat                                   : AAC\nFormat/Info                              : Advanced Audio Codec\nFormat profile                           : HE-AAC / LC\nCodec ID                                 : 40\nDuration                                 : 24mn 50s\nBit rate mode                            : Variable\nBit rate                                 : 63.9 Kbps\nMaximum bit rate                         : 85.8 Kbps\nChannel(s)                               : 2 channels\nChannel positions                        : Front: L R\nSampling rate                            : 48.0 KHz / 24.0 KHz\nCompression mode                         : Lossy\nStream size                              : 11.4 MiB (17%)\nLanguage                                 : English\n_________________________________________________________\n\nSummary:\nStaz is the vampire boss of a section of the demon world, but he has little interest in human blood. He's more infatuated with Japanese culture. When he learns that Yanagi Fuyumi, a Japanese teenage girl, accidentally wanders into the demon city, he jumps to the occasion. However, while Staz deals with an intruder on his turf, the oblivious Fuyumi is killed by a monster and becomes a wandering ghost. The disappointed Staz vows to her that he will find a way to bring Fuyumi back to life.\n\nFor updates/requests:\nTwitter - @p7tricktorrent\nFacebook - /p7tricktorrent\nTPB - /user/p7trick/\nKAT - /user/iPirate7\n_________________________________________________________\n\nSEED!\n\nshare ratio:\n&quot;Scumbag = 0.1:1\nLeecher = 0.999:1\nMinimum = 1:1\nGood = 3:1\nGreat = 5:1\nAwesome = 10:1\n1337 = 100:1&quot;\t\t","torrent":{"xt":"urn:btih:b9342ee4cf40ad7fcf4917258381a21a0f481688","amp;dn":"Blood+Lad","amp;tr":["udp%3A%2F%2Ftracker.openbittorrent.com%3A80","udp%3A%2F%2Fopen.demonii.com%3A1337","udp%3A%2F%2Ftracker.coppersurfer.tk%3A6969","udp%3A%2F%2Fexodus.desync.com%3A6969"],"infoHash":"b9342ee4cf40ad7fcf4917258381a21a0f481688","infoHashBuffer":{"type":"Buffer","data":[185,52,46,228,207,64,173,127,207,73,23,37,131,129,162,26,15,72,22,136]},"announce":[],"urlList":[]}}